<?xml version="1.0" encoding="utf-8"?>
<!-- Generator: Adobe Illustrator 17.1.0, SVG Export Plug-In . SVG Version: 6.00 Build 0)  -->
<!DOCTYPE svg PUBLIC "-//W3C//DTD SVG 1.1//EN" "http://www.w3.org/Graphics/SVG/1.1/DTD/svg11.dtd">
<svg version="1.1" xmlns="http://www.w3.org/2000/svg" xmlns:xlink="http://www.w3.org/1999/xlink" x="0px" y="0px"
	 viewBox="0 0 1000 229" enable-background="new 0 0 1000 229" xml:space="preserve">
<g id="Layer_2">
	<g>
		<g>
			<polygon fill="#2DB5AD" points="840.669,0 1001.356,77.953 1001.356,229 626.496,229 			"/>
		</g>
	</g>
	<g>
		<g>
			<polygon fill="#2DB5AD" points="450.729,134.732 578.43,229 365.395,229 			"/>
		</g>
	</g>
	<g>
		<g>
			<polygon fill="#2DB5AD" points="90.462,113.045 184.728,229 -1.627,229 			"/>
		</g>
	</g>
</g>
<g id="Layer_3">
	<g opacity="0.8">
		<g>
			<polygon fill="#D8D335" points="607.177,16.401 802.263,229 450.729,229 			"/>
		</g>
	</g>
	<g opacity="0.8">
		<g>
			<polygon fill="#D8D335" points="196.988,80.305 392.073,229 40.54,229 			"/>
		</g>
	</g>
</g>
<g id="Layer_1">
	<g opacity="0.2">
		<g>
			<polygon fill="#1C1B1A" points="607.177,16.401 947.87,229 596.338,229 			"/>
		</g>
	</g>
	<g opacity="0.2">
		<g>
			<polygon fill="#1C1B1A" points="450.729,134.732 501.69,229 365.395,229 			"/>
		</g>
	</g>
	<circle fill="#FFFFFF" cx="715.088" cy="133.901" r="4.23"/>
	<circle fill="#FFFFFF" cx="480.515" cy="188.633" r="4.23"/>
	<g opacity="0.2">
		<g>
			<polygon fill="#1C1B1A" points="-0.272,139.488 392.073,229 -0.272,229 			"/>
		</g>
	</g>
	<circle fill="#FFFFFF" cx="136.622" cy="171.023" r="4.23"/>
	<circle fill="#FFFFFF" cx="369.625" cy="222.728" r="4.23"/>
	<circle fill="#FFFFFF" cx="108.496" cy="164.546" r="4.23"/>
</g>
</svg>
