<?xml version="1.0" encoding="utf-8"?>
<!-- Generator: Adobe Illustrator 17.1.0, SVG Export Plug-In . SVG Version: 6.00 Build 0)  -->
<!DOCTYPE svg PUBLIC "-//W3C//DTD SVG 1.1//EN" "http://www.w3.org/Graphics/SVG/1.1/DTD/svg11.dtd">
<svg version="1.1" id="Layer_1" xmlns="http://www.w3.org/2000/svg" xmlns:xlink="http://www.w3.org/1999/xlink" x="0px" y="0px"
	 viewBox="0 0 900 800" enable-background="new 0 0 900 800" xml:space="preserve">
<g>
	<defs>
		<rect id="SVGID_1_" x="-0.55" width="900.55" height="800"/>
	</defs>
	<clipPath id="SVGID_2_">
		<use xlink:href="#SVGID_1_"  overflow="visible"/>
	</clipPath>
	<g clip-path="url(#SVGID_2_)">
		<rect x="-0.55" y="-49.006" fill="#FFE400" width="900.55" height="801.584"/>
		<polygon fill="#A6BF42" points="900,-39.438 900,790.12 -0.55,790.12 -0.55,146.79 		"/>
		<polygon fill="#D8D335" points="900,19.448 900,849.006 -0.55,849.006 -0.55,485.384 		"/>
		<polygon fill="#2DB5AD" points="900,76.126 900,849.006 369.697,849.006 		"/>
		<polygon opacity="0.2" fill="#1C1B1A" points="-0.55,-49.006 264.602,-49.006 -0.55,849.006 		"/>
		<polygon opacity="0.2" fill="#1C1B1A" points="-0.55,-49.006 773.966,-49.006 900,849.006 		"/>
		<polygon opacity="0.2" fill="#1C1B1A" points="-0.55,-49.006 568.191,191.134 -0.55,849.006 		"/>
		<path fill="#FFFFFF" d="M585.127,529.262c3.185,0,5.769,2.581,5.769,5.763c0,3.183-2.584,5.763-5.769,5.763
			c-3.18,0-5.757-2.58-5.757-5.763C579.37,531.843,581.946,529.262,585.127,529.262z"/>
		<path fill="#FFFFFF" d="M567.936,185.699c3.185,0,5.769,2.579,5.769,5.762c0,3.183-2.584,5.762-5.769,5.762
			c-3.18,0-5.756-2.579-5.756-5.762C562.179,188.278,564.756,185.699,567.936,185.699z"/>
		<path fill="#FFFFFF" d="M352.106,296.852c3.185,0,5.769,2.579,5.769,5.762s-2.584,5.762-5.769,5.762
			c-3.18,0-5.757-2.579-5.757-5.762S348.926,296.852,352.106,296.852z"/>
		<path fill="#FFFFFF" d="M416.629,360.495c3.185,0,5.769,2.579,5.769,5.762c0,3.182-2.584,5.761-5.769,5.761
			c-3.18,0-5.756-2.579-5.756-5.761C410.873,363.074,413.449,360.495,416.629,360.495z"/>
		<path fill="#FFFFFF" d="M204.793,148.741c3.185,0,5.769,2.579,5.769,5.762c0,3.183-2.584,5.762-5.769,5.762
			c-3.18,0-5.757-2.579-5.757-5.762C199.036,151.32,201.613,148.741,204.793,148.741z"/>
		<path fill="#FFFFFF" d="M162.018,107.159c3.185,0,5.769,2.579,5.769,5.762c0,3.182-2.584,5.761-5.769,5.761
			c-3.18,0-5.756-2.579-5.756-5.761C156.262,109.738,158.838,107.159,162.018,107.159z"/>
		<path fill="#FFFFFF" d="M220.389,95.636c3.185,0,5.769,2.579,5.769,5.762c0,3.182-2.584,5.762-5.769,5.762
			c-3.18,0-5.756-2.579-5.756-5.762C214.632,98.215,217.209,95.636,220.389,95.636z"/>
		<path fill="#FFFFFF" d="M235.37,44.677c3.185,0,5.769,2.579,5.769,5.762c0,3.182-2.584,5.762-5.769,5.762
			c-3.18,0-5.756-2.579-5.756-5.762C229.613,47.256,232.19,44.677,235.37,44.677z"/>
		<path fill="#FFFFFF" d="M126.257,413.58c3.185,0,5.769,2.579,5.769,5.762s-2.584,5.762-5.769,5.762
			c-3.18,0-5.756-2.579-5.756-5.762S123.077,413.58,126.257,413.58z"/>
		<path fill="#FFFFFF" d="M310.466,76.368c3.185,0,5.769,2.579,5.769,5.762c0,3.182-2.584,5.762-5.769,5.762
			c-3.18,0-5.757-2.579-5.757-5.762C304.71,78.947,307.286,76.368,310.466,76.368z"/>
		<path fill="#FFFFFF" d="M791.414,68.809c3.185,0,5.769,2.579,5.769,5.761c0,3.183-2.584,5.762-5.769,5.762
			c-3.18,0-5.756-2.579-5.756-5.762C785.657,71.388,788.234,68.809,791.414,68.809z"/>
		<path fill="#FFFFFF" d="M809.982,201.322c3.185,0,5.769,2.579,5.769,5.762c0,3.182-2.584,5.761-5.769,5.761
			c-3.18,0-5.757-2.579-5.757-5.761C804.225,203.9,806.802,201.322,809.982,201.322z"/>
		<path fill="#FFFFFF" d="M778.966-20.119c3.185,0,5.769,2.579,5.769,5.762c0,3.183-2.584,5.762-5.769,5.762
			c-3.18,0-5.757-2.579-5.757-5.762C773.209-17.54,775.786-20.119,778.966-20.119z"/>
	</g>
</g>
</svg>
