<?xml version="1.0" encoding="utf-8"?>
<!-- Generator: Adobe Illustrator 17.1.0, SVG Export Plug-In . SVG Version: 6.00 Build 0)  -->
<!DOCTYPE svg PUBLIC "-//W3C//DTD SVG 1.1//EN" "http://www.w3.org/Graphics/SVG/1.1/DTD/svg11.dtd">
<svg version="1.1" id="Layer_1" xmlns="http://www.w3.org/2000/svg" xmlns:xlink="http://www.w3.org/1999/xlink" x="0px" y="0px"
	 viewBox="0 0 900 800" enable-background="new 0 0 900 800" xml:space="preserve">
<g>
	<g>
		<g>
			<defs>
				<rect id="SVGID_1_" x="-11.8" y="-10" width="923.1" height="820"/>
			</defs>
			<clipPath id="SVGID_2_">
				<use xlink:href="#SVGID_1_"  overflow="visible"/>
			</clipPath>
			<g clip-path="url(#SVGID_2_)">
				<rect x="-11.8" y="-60.2" fill="#FFE400" width="923.1" height="821.6"/>
				<polygon fill="#A6BF42" points="911.3,-50.4 911.3,799.9 -11.8,799.9 -11.8,140.5 				"/>
				<polygon fill="#D8D335" points="911.3,9.9 911.3,860.2 -11.8,860.2 -11.8,487.5 				"/>
				<polygon fill="#2DB5AD" points="911.3,68 911.3,860.2 367.7,860.2 				"/>
				<polygon opacity="0.2" fill="#1C1B1A" enable-background="new    " points="-11.8,-60.2 260,-60.2 -11.8,860.2 				"/>
				<polygon opacity="0.2" fill="#1C1B1A" enable-background="new    " points="-11.8,-60.2 782.1,-60.2 911.3,860.2 				"/>
				<polygon opacity="0.2" fill="#1C1B1A" enable-background="new    " points="-11.8,-60.2 571.2,185.9 -11.8,860.2 				"/>
				<path fill="#FFFFFF" d="M588.5,532.5c3.3,0,5.9,2.6,5.9,5.9c0,3.3-2.6,5.9-5.9,5.9c-3.3,0-5.9-2.6-5.9-5.9
					S585.3,532.5,588.5,532.5z"/>
				<path fill="#FFFFFF" d="M570.9,180.3c3.3,0,5.9,2.6,5.9,5.9s-2.6,5.9-5.9,5.9c-3.3,0-5.9-2.6-5.9-5.9
					C565,183,567.6,180.3,570.9,180.3z"/>
				<path fill="#FFFFFF" d="M349.7,294.3c3.3,0,5.9,2.6,5.9,5.9s-2.6,5.9-5.9,5.9s-5.9-2.6-5.9-5.9
					C343.8,296.9,346.4,294.3,349.7,294.3z"/>
				<path fill="#FFFFFF" d="M415.8,359.5c3.3,0,5.9,2.6,5.9,5.9s-2.6,5.9-5.9,5.9s-5.9-2.6-5.9-5.9
					C409.9,362.2,412.5,359.5,415.8,359.5z"/>
				<path fill="#FFFFFF" d="M198.7,142.5c3.3,0,5.9,2.6,5.9,5.9s-2.6,5.9-5.9,5.9c-3.3,0-5.9-2.6-5.9-5.9S195.4,142.5,198.7,142.5z"
					/>
				<path fill="#FFFFFF" d="M154.8,99.8c3.3,0,5.9,2.6,5.9,5.9s-2.6,5.9-5.9,5.9c-3.3,0-5.9-2.6-5.9-5.9
					C148.9,102.5,151.6,99.8,154.8,99.8z"/>
				<path fill="#FFFFFF" d="M214.7,88c3.3,0,5.9,2.6,5.9,5.9s-2.6,5.9-5.9,5.9c-3.3,0-5.9-2.6-5.9-5.9C208.8,90.7,211.4,88,214.7,88
					z"/>
				<path fill="#FFFFFF" d="M230,35.8c3.3,0,5.9,2.6,5.9,5.9c0,3.3-2.6,5.9-5.9,5.9c-3.3,0-5.9-2.6-5.9-5.9
					C224.1,38.4,226.8,35.8,230,35.8z"/>
				<path fill="#FFFFFF" d="M118.2,413.9c3.3,0,5.9,2.6,5.9,5.9s-2.6,5.9-5.9,5.9s-5.9-2.6-5.9-5.9
					C112.3,416.6,114.9,413.9,118.2,413.9z"/>
				<path fill="#FFFFFF" d="M307,68.3c3.3,0,5.9,2.6,5.9,5.9s-2.6,5.9-5.9,5.9s-5.9-2.6-5.9-5.9S303.7,68.3,307,68.3z"/>
				<path fill="#FFFFFF" d="M800,60.5c3.3,0,5.9,2.6,5.9,5.9s-2.6,5.9-5.9,5.9c-3.3,0-5.9-2.6-5.9-5.9
					C794.1,63.2,796.7,60.5,800,60.5z"/>
				<path fill="#FFFFFF" d="M819,196.4c3.3,0,5.9,2.6,5.9,5.9c0,3.3-2.6,5.9-5.9,5.9c-3.3,0-5.9-2.6-5.9-5.9S815.7,196.4,819,196.4z
					"/>
				<path fill="#FFFFFF" d="M787.2-30.6c3.3,0,5.9,2.6,5.9,5.9s-2.6,5.9-5.9,5.9c-3.3,0-5.9-2.6-5.9-5.9S783.9-30.6,787.2-30.6z"/>
			</g>
		</g>
	</g>
</g>
<rect x="-11.8" y="-18" opacity="0.8" fill="#231F20" stroke="#000000" stroke-miterlimit="10" width="923.1" height="828"/>
</svg>
