<?xml version="1.0" encoding="utf-8"?>
<!-- Generator: Adobe Illustrator 17.1.0, SVG Export Plug-In . SVG Version: 6.00 Build 0)  -->
<!DOCTYPE svg PUBLIC "-//W3C//DTD SVG 1.1//EN" "http://www.w3.org/Graphics/SVG/1.1/DTD/svg11.dtd">
<svg version="1.1" id="Layer_1" xmlns="http://www.w3.org/2000/svg" xmlns:xlink="http://www.w3.org/1999/xlink" x="0px" y="0px"
	 viewBox="0 0 1000 800" enable-background="new 0 0 1000 800" xml:space="preserve">
<g>
	<path fill="#FFFFFF" d="M500,226.338c-46.387,0-89.998,18.064-122.798,50.865s-50.865,76.411-50.865,122.798
		c0,46.386,18.064,89.998,50.865,122.798C410.003,555.6,453.613,573.664,500,573.664c46.386,0,89.998-18.064,122.798-50.865
		c32.801-32.8,50.865-76.411,50.865-122.798s-18.064-89.998-50.865-122.798C589.997,244.402,546.386,226.338,500,226.338z"/>
	<path fill="#FFFFFF" d="M0-2.002v804.003h1000V-2.002H0z M645.311,545.311C606.497,584.125,554.891,605.5,500,605.5
		s-106.496-21.375-145.31-60.189S294.5,454.891,294.5,400s21.376-106.497,60.19-145.31c38.814-38.814,90.419-60.19,145.31-60.19
		s106.497,21.376,145.311,60.19C684.125,293.504,705.5,345.109,705.5,400S684.125,506.497,645.311,545.311z"/>
</g>
</svg>
